<?xml version="1.0" standalone="no"?>
<!DOCTYPE svg PUBLIC "-//W3C//DTD SVG 1.1//EN" "http://www.w3.org/Graphics/SVG/1.1/DTD/svg11.dtd" >
<svg xmlns="http://www.w3.org/2000/svg" xmlns:xlink="http://www.w3.org/1999/xlink" version="1.1" viewBox="-10 0 1556 1792">
  <g transform="matrix(1 0 0 -1 0 1536)">
   <path fill="currentColor"
d="M1536 192v-128q0 -26 -19.1512 -45.1512q-18.8488 -18.8488 -44.8488 -18.8488h-1229q-36 0 -47.5 16q-9.5 14 -9.5 39l2 150l28 36l41 17l1215 -2q26 0 44.9989 -18.8782q19.0011 -19.1218 19.0011 -45.1218zM1536 704v-128q0 -26 -19.1991 -45.1991
q-18.5418 -18.5418 -44.8009 -18.8009l-1216 -12l-24 9q-26.5 24.4615 -26.5 48.5v128q0 44.0577 26.5 67.5l35 10l1205 5q25.8926 0.107438 44.9461 -18.9463q19.0539 -19.0537 19.0539 -45.0537zM1536 1216v-128q0 -26 -19 -45t-45 -19h-1408q-26 0 -45 19t-19 45v128
q0 26 19 45t45 19h1408q26 0 45 -19t19 -45z" />
  </g>

</svg>
